<mxfile host="app.diagrams.net" agent="Mozilla/5.0 (Macintosh; Intel Mac OS X 10_15_7) AppleWebKit/537.36 (KHTML, like Gecko) Chrome/138.0.0.0 Safari/537.36" version="27.1.4">
  <diagram name="Page-1" id="fsPOhyJs1zt-L_zDXuyr">
    <mxGraphModel dx="3938" dy="2820" grid="1" gridSize="10" guides="1" tooltips="1" connect="1" arrows="1" fold="1" page="1" pageScale="1" pageWidth="827" pageHeight="1169" math="0" shadow="0">
      <root>
        <mxCell id="0" />
        <mxCell id="1" parent="0" />
        <mxCell id="nioRuTgzbruzjEXk36KD-57" value="" style="whiteSpace=wrap;html=1;aspect=fixed;" vertex="1" parent="1">
          <mxGeometry x="-380" y="-310" width="1670" height="1670" as="geometry" />
        </mxCell>
        <mxCell id="nioRuTgzbruzjEXk36KD-2" value="&lt;font style=&quot;font-size: 18px;&quot;&gt;Admin&lt;/font&gt;&lt;div&gt;&lt;br&gt;&lt;/div&gt;" style="shape=umlActor;verticalLabelPosition=bottom;verticalAlign=top;html=1;outlineConnect=0;" vertex="1" parent="1">
          <mxGeometry x="1120" y="280" width="80" height="140" as="geometry" />
        </mxCell>
        <mxCell id="nioRuTgzbruzjEXk36KD-3" value="&lt;font style=&quot;font-size: 18px;&quot;&gt;Driver&lt;/font&gt;" style="shape=umlActor;verticalLabelPosition=bottom;verticalAlign=top;html=1;outlineConnect=0;" vertex="1" parent="1">
          <mxGeometry x="-310" y="270" width="80" height="140" as="geometry" />
        </mxCell>
        <mxCell id="nioRuTgzbruzjEXk36KD-21" value="&lt;font style=&quot;font-size: 16px;&quot;&gt;Exit(Not listed vehicle)&lt;/font&gt;" style="ellipse;whiteSpace=wrap;html=1;" vertex="1" parent="1">
          <mxGeometry x="20" y="440" width="206" height="100" as="geometry" />
        </mxCell>
        <mxCell id="nioRuTgzbruzjEXk36KD-22" value="&lt;font style=&quot;font-size: 16px;&quot;&gt;Not Listed Entry&amp;nbsp;&lt;/font&gt;" style="ellipse;whiteSpace=wrap;html=1;" vertex="1" parent="1">
          <mxGeometry x="-260" y="40" width="190" height="100" as="geometry" />
        </mxCell>
        <mxCell id="nioRuTgzbruzjEXk36KD-23" value="&lt;font style=&quot;font-size: 16px;&quot;&gt;Creating report templates&amp;nbsp;&lt;/font&gt;" style="ellipse;whiteSpace=wrap;html=1;" vertex="1" parent="1">
          <mxGeometry x="800" y="60" width="200" height="100" as="geometry" />
        </mxCell>
        <mxCell id="nioRuTgzbruzjEXk36KD-24" value="&lt;font style=&quot;font-size: 16px;&quot;&gt;Subscribing/Registering&amp;nbsp; vehicle for white list&lt;/font&gt;" style="ellipse;whiteSpace=wrap;html=1;" vertex="1" parent="1">
          <mxGeometry x="-20" y="610" width="200" height="100" as="geometry" />
        </mxCell>
        <mxCell id="nioRuTgzbruzjEXk36KD-25" value="&lt;span style=&quot;box-sizing: border-box; margin-bottom: 0px; color: rgb(31, 35, 40); font-size: 16px; text-align: start; background-color: rgb(255, 255, 255);&quot;&gt;&lt;font face=&quot;Helvetica&quot;&gt;Authorize/Block Vehicles&amp;nbsp;&lt;/font&gt;&lt;/span&gt;" style="ellipse;whiteSpace=wrap;html=1;" vertex="1" parent="1">
          <mxGeometry x="640" y="500" width="200" height="100" as="geometry" />
        </mxCell>
        <mxCell id="nioRuTgzbruzjEXk36KD-26" value="&lt;font style=&quot;font-size: 16px;&quot;&gt;Acess and run reports&lt;/font&gt;" style="ellipse;whiteSpace=wrap;html=1;" vertex="1" parent="1">
          <mxGeometry x="620" y="350" width="200" height="100" as="geometry" />
        </mxCell>
        <mxCell id="nioRuTgzbruzjEXk36KD-27" value="&lt;span style=&quot;box-sizing: border-box; margin-bottom: 0px; color: rgb(31, 35, 40); font-size: 16px; text-align: start; background-color: rgb(255, 255, 255);&quot;&gt;&lt;font face=&quot;Helvetica&quot;&gt;Configure Access Roles &amp;amp; Authentication&lt;/font&gt;&lt;/span&gt;" style="ellipse;whiteSpace=wrap;html=1;" vertex="1" parent="1">
          <mxGeometry x="730" y="660" width="200" height="100" as="geometry" />
        </mxCell>
        <mxCell id="nioRuTgzbruzjEXk36KD-29" value="&lt;span style=&quot;color: rgb(0, 0, 0); font-family: Helvetica; font-size: 16px; font-style: normal; font-variant-ligatures: normal; font-variant-caps: normal; font-weight: 400; letter-spacing: normal; orphans: 2; text-align: center; text-indent: 0px; text-transform: none; widows: 2; word-spacing: 0px; -webkit-text-stroke-width: 0px; white-space: normal; text-decoration-thickness: initial; text-decoration-style: initial; text-decoration-color: initial; float: none; display: inline !important;&quot;&gt;White Listed Entry&lt;/span&gt;" style="ellipse;whiteSpace=wrap;html=1;" vertex="1" parent="1">
          <mxGeometry x="-40" y="100" width="200" height="100" as="geometry" />
        </mxCell>
        <mxCell id="nioRuTgzbruzjEXk36KD-30" value="&lt;font style=&quot;font-size: 16px;&quot;&gt;Black Listed Entry&lt;/font&gt;" style="ellipse;whiteSpace=wrap;html=1;" vertex="1" parent="1">
          <mxGeometry x="26" y="260" width="200" height="100" as="geometry" />
        </mxCell>
        <mxCell id="nioRuTgzbruzjEXk36KD-31" value="&lt;font style=&quot;font-size: 16px;&quot;&gt;View subscription(subscription history)&lt;/font&gt;" style="ellipse;whiteSpace=wrap;html=1;" vertex="1" parent="1">
          <mxGeometry x="-270" y="640" width="200" height="100" as="geometry" />
        </mxCell>
        <mxCell id="nioRuTgzbruzjEXk36KD-32" value="&lt;font style=&quot;font-size: 16px;&quot;&gt;Adjusting prices&amp;nbsp;&lt;/font&gt;" style="ellipse;whiteSpace=wrap;html=1;" vertex="1" parent="1">
          <mxGeometry x="610" y="210" width="200" height="100" as="geometry" />
        </mxCell>
        <mxCell id="nioRuTgzbruzjEXk36KD-39" value="" style="endArrow=classic;html=1;rounded=0;entryX=0.241;entryY=0.94;entryDx=0;entryDy=0;entryPerimeter=0;" edge="1" parent="1" source="nioRuTgzbruzjEXk36KD-3" target="nioRuTgzbruzjEXk36KD-29">
          <mxGeometry width="50" height="50" relative="1" as="geometry">
            <mxPoint x="-260" y="360" as="sourcePoint" />
            <mxPoint x="-260" y="340" as="targetPoint" />
          </mxGeometry>
        </mxCell>
        <mxCell id="nioRuTgzbruzjEXk36KD-40" value="" style="endArrow=classic;html=1;rounded=0;entryX=0.396;entryY=1.02;entryDx=0;entryDy=0;entryPerimeter=0;" edge="1" parent="1" source="nioRuTgzbruzjEXk36KD-3" target="nioRuTgzbruzjEXk36KD-22">
          <mxGeometry width="50" height="50" relative="1" as="geometry">
            <mxPoint x="-290" y="270" as="sourcePoint" />
            <mxPoint x="-250" y="230" as="targetPoint" />
          </mxGeometry>
        </mxCell>
        <mxCell id="nioRuTgzbruzjEXk36KD-41" value="" style="endArrow=classic;html=1;rounded=0;entryX=0.016;entryY=0.57;entryDx=0;entryDy=0;entryPerimeter=0;" edge="1" parent="1" source="nioRuTgzbruzjEXk36KD-3" target="nioRuTgzbruzjEXk36KD-30">
          <mxGeometry width="50" height="50" relative="1" as="geometry">
            <mxPoint x="-270" y="390" as="sourcePoint" />
            <mxPoint x="20" y="320" as="targetPoint" />
          </mxGeometry>
        </mxCell>
        <mxCell id="nioRuTgzbruzjEXk36KD-42" value="" style="endArrow=classic;html=1;rounded=0;entryX=0;entryY=0.5;entryDx=0;entryDy=0;" edge="1" parent="1" source="nioRuTgzbruzjEXk36KD-3" target="nioRuTgzbruzjEXk36KD-21">
          <mxGeometry width="50" height="50" relative="1" as="geometry">
            <mxPoint x="-280" y="420" as="sourcePoint" />
            <mxPoint x="68" y="440" as="targetPoint" />
          </mxGeometry>
        </mxCell>
        <mxCell id="nioRuTgzbruzjEXk36KD-43" value="" style="endArrow=classic;html=1;rounded=0;entryX=0.061;entryY=0.26;entryDx=0;entryDy=0;entryPerimeter=0;" edge="1" parent="1" source="nioRuTgzbruzjEXk36KD-3" target="nioRuTgzbruzjEXk36KD-24">
          <mxGeometry width="50" height="50" relative="1" as="geometry">
            <mxPoint x="-290" y="440" as="sourcePoint" />
            <mxPoint x="48" y="460" as="targetPoint" />
          </mxGeometry>
        </mxCell>
        <mxCell id="nioRuTgzbruzjEXk36KD-44" value="" style="endArrow=classic;html=1;rounded=0;entryX=0.386;entryY=0.02;entryDx=0;entryDy=0;entryPerimeter=0;" edge="1" parent="1" source="nioRuTgzbruzjEXk36KD-3" target="nioRuTgzbruzjEXk36KD-31">
          <mxGeometry width="50" height="50" relative="1" as="geometry">
            <mxPoint x="-330" y="470" as="sourcePoint" />
            <mxPoint x="38" y="530" as="targetPoint" />
          </mxGeometry>
        </mxCell>
        <mxCell id="nioRuTgzbruzjEXk36KD-52" value="" style="endArrow=classic;html=1;rounded=0;entryX=1.006;entryY=0.583;entryDx=0;entryDy=0;entryPerimeter=0;" edge="1" parent="1" source="nioRuTgzbruzjEXk36KD-2" target="nioRuTgzbruzjEXk36KD-26">
          <mxGeometry width="50" height="50" relative="1" as="geometry">
            <mxPoint x="950" y="699" as="sourcePoint" />
            <mxPoint x="1248" y="570" as="targetPoint" />
          </mxGeometry>
        </mxCell>
        <mxCell id="nioRuTgzbruzjEXk36KD-53" value="" style="endArrow=classic;html=1;rounded=0;entryX=0.976;entryY=0.303;entryDx=0;entryDy=0;entryPerimeter=0;" edge="1" parent="1" source="nioRuTgzbruzjEXk36KD-2" target="nioRuTgzbruzjEXk36KD-25">
          <mxGeometry width="50" height="50" relative="1" as="geometry">
            <mxPoint x="1100" y="410" as="sourcePoint" />
            <mxPoint x="1128" y="550" as="targetPoint" />
          </mxGeometry>
        </mxCell>
        <mxCell id="nioRuTgzbruzjEXk36KD-54" value="" style="endArrow=classic;html=1;rounded=0;entryX=0.931;entryY=0.303;entryDx=0;entryDy=0;entryPerimeter=0;" edge="1" parent="1" source="nioRuTgzbruzjEXk36KD-2" target="nioRuTgzbruzjEXk36KD-27">
          <mxGeometry width="50" height="50" relative="1" as="geometry">
            <mxPoint x="890" y="799" as="sourcePoint" />
            <mxPoint x="1188" y="670" as="targetPoint" />
          </mxGeometry>
        </mxCell>
        <mxCell id="nioRuTgzbruzjEXk36KD-55" value="" style="endArrow=classic;html=1;rounded=0;entryX=1.006;entryY=0.373;entryDx=0;entryDy=0;entryPerimeter=0;" edge="1" parent="1" source="nioRuTgzbruzjEXk36KD-2" target="nioRuTgzbruzjEXk36KD-32">
          <mxGeometry width="50" height="50" relative="1" as="geometry">
            <mxPoint x="880" y="399" as="sourcePoint" />
            <mxPoint x="1178" y="270" as="targetPoint" />
          </mxGeometry>
        </mxCell>
        <mxCell id="nioRuTgzbruzjEXk36KD-56" value="" style="endArrow=classic;html=1;rounded=0;entryX=1;entryY=0.5;entryDx=0;entryDy=0;" edge="1" parent="1" source="nioRuTgzbruzjEXk36KD-2" target="nioRuTgzbruzjEXk36KD-23">
          <mxGeometry width="50" height="50" relative="1" as="geometry">
            <mxPoint x="1020" y="309" as="sourcePoint" />
            <mxPoint x="1318" y="180" as="targetPoint" />
          </mxGeometry>
        </mxCell>
        <mxCell id="nioRuTgzbruzjEXk36KD-58" value="Text" style="text;html=1;align=center;verticalAlign=middle;whiteSpace=wrap;rounded=0;" vertex="1" parent="1">
          <mxGeometry x="740" y="500" width="60" height="30" as="geometry" />
        </mxCell>
        <mxCell id="nioRuTgzbruzjEXk36KD-59" value="&lt;font style=&quot;font-size: 46px;&quot;&gt;Barrier Control System&lt;/font&gt;" style="text;html=1;align=center;verticalAlign=middle;whiteSpace=wrap;rounded=0;" vertex="1" parent="1">
          <mxGeometry x="129" y="-290" width="570" height="110" as="geometry" />
        </mxCell>
      </root>
    </mxGraphModel>
  </diagram>
</mxfile>
